<svg width="24" height="24" viewBox="0 0 24 24" fill="none" xmlns="http://www.w3.org/2000/svg">
<path d="M22.2581 17.2184C21.6511 16.1728 20.7487 13.2142 20.7487 9.34998C20.7487 7.02933 19.8269 4.80373 18.1859 3.16279C16.545 1.52185 14.3194 0.599976 11.9987 0.599976C9.67809 0.599976 7.45249 1.52185 5.81155 3.16279C4.1706 4.80373 3.24873 7.02933 3.24873 9.34998C3.24873 13.2153 2.34529 16.1728 1.73826 17.2184C1.58325 17.4842 1.50107 17.7862 1.50001 18.094C1.49895 18.4017 1.57906 18.7043 1.73225 18.9711C1.88543 19.238 2.10629 19.4598 2.37253 19.6141C2.63878 19.7684 2.94101 19.8498 3.24873 19.85H7.71233C7.9142 20.8378 8.45107 21.7256 9.23213 22.3632C10.0132 23.0008 10.9905 23.349 11.9987 23.349C13.007 23.349 13.9843 23.0008 14.7653 22.3632C15.5464 21.7256 16.0833 20.8378 16.2851 19.85H20.7487C21.0564 19.8496 21.3585 19.7681 21.6245 19.6137C21.8906 19.4593 22.1113 19.2375 22.2644 18.9707C22.4175 18.7038 22.4975 18.4013 22.4964 18.0937C22.4953 17.7861 22.4131 17.4842 22.2581 17.2184ZM11.9987 21.6C11.456 21.5998 10.9267 21.4314 10.4837 21.118C10.0406 20.8047 9.70557 20.3616 9.52467 19.85H14.4728C14.2919 20.3616 13.9569 20.8047 13.5138 21.118C13.0707 21.4314 12.5414 21.5998 11.9987 21.6ZM3.24873 18.1C4.09092 16.6519 4.99873 13.2962 4.99873 9.34998C4.99873 7.49346 5.73623 5.71298 7.04898 4.40023C8.36174 3.08747 10.1422 2.34998 11.9987 2.34998C13.8552 2.34998 15.6357 3.08747 16.9485 4.40023C18.2612 5.71298 18.9987 7.49346 18.9987 9.34998C18.9987 13.2929 19.9044 16.6486 20.7487 18.1H3.24873Z" fill="black"/>
</svg>
