<svg width="24" height="24" viewBox="0 0 24 24" fill="none" xmlns="http://www.w3.org/2000/svg">
<path d="M15.7802 18.7578C15.8499 18.8254 15.9052 18.9056 15.9429 18.9939C15.9806 19.0822 16 19.1768 16 19.2724C16 19.3679 15.9806 19.4625 15.9429 19.5508C15.9052 19.6391 15.8499 19.7193 15.7802 19.7869C15.7106 19.8544 15.6278 19.908 15.5368 19.9446C15.4458 19.9812 15.3482 20 15.2497 20C15.1511 20 15.0536 19.9812 14.9625 19.9446C14.8715 19.908 14.7888 19.8544 14.7191 19.7869L7.21994 12.5145C7.15022 12.447 7.0949 12.3668 7.05716 12.2785C7.01942 12.1902 7 12.0956 7 12C7 11.9044 7.01942 11.8098 7.05716 11.7215C7.0949 11.6332 7.15022 11.553 7.21994 11.4855L14.7191 4.21312C14.8598 4.07666 15.0507 4 15.2497 4C15.4487 4 15.6395 4.07666 15.7802 4.21312C15.9209 4.34958 16 4.53466 16 4.72764C16 4.92062 15.9209 5.1057 15.7802 5.24216L8.8107 12L15.7802 18.7578Z" fill="black"/>
</svg>
