<svg width="24" height="24" viewBox="0 0 24 24" fill="none" xmlns="http://www.w3.org/2000/svg">
<path d="M12.9 11.125V21.625C12.9 21.8571 12.8078 22.0796 12.6437 22.2437C12.4796 22.4078 12.2571 22.5 12.025 22.5C11.793 22.5 11.5704 22.4078 11.4063 22.2437C11.2422 22.0796 11.15 21.8571 11.15 21.625V11.125C11.15 10.8929 11.2422 10.6704 11.4063 10.5063C11.5704 10.3422 11.793 10.25 12.025 10.25C12.2571 10.25 12.4796 10.3422 12.6437 10.5063C12.8078 10.6704 12.9 10.8929 12.9 11.125ZM19.9 19C19.668 19 19.4454 19.0922 19.2813 19.2563C19.1172 19.4204 19.025 19.6429 19.025 19.875V21.625C19.025 21.8571 19.1172 22.0796 19.2813 22.2437C19.4454 22.4078 19.668 22.5 19.9 22.5C20.1321 22.5 20.3546 22.4078 20.5187 22.2437C20.6828 22.0796 20.775 21.8571 20.775 21.625V19.875C20.775 19.6429 20.6828 19.4204 20.5187 19.2563C20.3546 19.0922 20.1321 19 19.9 19ZM22.525 15.5H20.775V2.375C20.775 2.14294 20.6828 1.92038 20.5187 1.75628C20.3546 1.59219 20.1321 1.5 19.9 1.5C19.668 1.5 19.4454 1.59219 19.2813 1.75628C19.1172 1.92038 19.025 2.14294 19.025 2.375V15.5H17.275C17.043 15.5 16.8204 15.5922 16.6563 15.7563C16.4922 15.9204 16.4 16.1429 16.4 16.375C16.4 16.6071 16.4922 16.8296 16.6563 16.9937C16.8204 17.1578 17.043 17.25 17.275 17.25H22.525C22.7571 17.25 22.9796 17.1578 23.1437 16.9937C23.3078 16.8296 23.4 16.6071 23.4 16.375C23.4 16.1429 23.3078 15.9204 23.1437 15.7563C22.9796 15.5922 22.7571 15.5 22.525 15.5ZM4.15002 15.5C3.91796 15.5 3.6954 15.5922 3.53131 15.7563C3.36721 15.9204 3.27502 16.1429 3.27502 16.375V21.625C3.27502 21.8571 3.36721 22.0796 3.53131 22.2437C3.6954 22.4078 3.91796 22.5 4.15002 22.5C4.38209 22.5 4.60465 22.4078 4.76874 22.2437C4.93284 22.0796 5.02502 21.8571 5.02502 21.625V16.375C5.02502 16.1429 4.93284 15.9204 4.76874 15.7563C4.60465 15.5922 4.38209 15.5 4.15002 15.5ZM6.77502 12H5.02502V2.375C5.02502 2.14294 4.93284 1.92038 4.76874 1.75628C4.60465 1.59219 4.38209 1.5 4.15002 1.5C3.91796 1.5 3.6954 1.59219 3.53131 1.75628C3.36721 1.92038 3.27502 2.14294 3.27502 2.375V12H1.52502C1.29296 12 1.0704 12.0922 0.906306 12.2563C0.742212 12.4204 0.650024 12.6429 0.650024 12.875C0.650024 13.1071 0.742212 13.3296 0.906306 13.4937C1.0704 13.6578 1.29296 13.75 1.52502 13.75H6.77502C7.00709 13.75 7.22965 13.6578 7.39374 13.4937C7.55784 13.3296 7.65002 13.1071 7.65002 12.875C7.65002 12.6429 7.55784 12.4204 7.39374 12.2563C7.22965 12.0922 7.00709 12 6.77502 12ZM14.65 6.75H12.9V2.375C12.9 2.14294 12.8078 1.92038 12.6437 1.75628C12.4796 1.59219 12.2571 1.5 12.025 1.5C11.793 1.5 11.5704 1.59219 11.4063 1.75628C11.2422 1.92038 11.15 2.14294 11.15 2.375V6.75H9.40002C9.16796 6.75 8.9454 6.84219 8.78131 7.00628C8.61721 7.17038 8.52502 7.39294 8.52502 7.625C8.52502 7.85706 8.61721 8.07962 8.78131 8.24372C8.9454 8.40781 9.16796 8.5 9.40002 8.5H14.65C14.8821 8.5 15.1046 8.40781 15.2687 8.24372C15.4328 8.07962 15.525 7.85706 15.525 7.625C15.525 7.39294 15.4328 7.17038 15.2687 7.00628C15.1046 6.84219 14.8821 6.75 14.65 6.75Z" fill="black"/>
</svg>
