<svg width="24" height="24" viewBox="0 0 24 24" fill="none" xmlns="http://www.w3.org/2000/svg">
<g filter="url(#filter0_i_1021_139)">
<path d="M2.13668 2.29295C2.5272 1.90243 3.16119 1.90243 3.55172 2.29295L7.19137 5.9326C7.24646 5.97652 7.29681 6.02747 7.34273 6.08397L17.7441 16.4853C17.807 16.534 17.8638 16.5915 17.915 16.6562L21.5517 20.293C21.9419 20.6834 21.9419 21.3166 21.5517 21.707C21.1612 22.0975 20.5272 22.0975 20.1367 21.707L16.9814 18.5517C15.5367 19.3969 13.815 20 11.8437 20C8.98233 19.9999 6.64935 18.7355 4.92086 17.293C3.19461 15.8522 2.01067 14.1856 1.41793 13.2471C1.29791 13.057 1.12939 12.8065 1.04683 12.4463C0.984597 12.1744 0.984505 11.8246 1.04683 11.5527C1.12952 11.1923 1.29859 10.9414 1.41891 10.751C2.02128 9.7974 3.24652 8.07702 5.04098 6.61131L2.13668 3.70702C1.74643 3.31655 1.74643 2.68343 2.13668 2.29295ZM6.46187 8.03221C4.8228 9.32628 3.67782 10.921 3.11031 11.8193C3.07484 11.8755 3.05004 11.915 3.02926 11.9492C3.01531 11.9722 3.00606 11.988 2.99996 11.999V12C3.00595 12.0108 3.01436 12.0269 3.02828 12.0498C3.04894 12.0838 3.07399 12.1237 3.10933 12.1797C3.64203 13.0231 4.69618 14.4999 6.20211 15.7568C7.70596 17.012 9.60056 17.9999 11.8437 18C13.1965 18 14.4212 17.6412 15.5107 17.081L13.875 15.4453C13.2796 15.7968 12.5849 16 11.8437 16C9.63476 15.9998 7.84371 14.209 7.84371 12C7.84371 11.2587 8.04683 10.5641 8.3984 9.96874L6.46187 8.03221ZM11.8437 3.99999C14.7053 3.99999 17.0389 5.26434 18.7675 6.70702C20.4937 8.1477 21.6767 9.81433 22.2695 10.7529C22.3745 10.9191 22.5171 11.1312 22.6064 11.4228L22.6416 11.5537L22.6767 11.7695C22.7001 11.9954 22.6883 12.2433 22.6416 12.4473C22.5588 12.8078 22.389 13.0592 22.2685 13.25C21.9502 13.7538 21.4671 14.4583 20.8271 15.2226C20.4726 15.646 19.8414 15.7021 19.4179 15.3476C18.9945 14.9931 18.9393 14.3619 19.2939 13.9385C19.865 13.2564 20.2958 12.6269 20.5771 12.1816C20.6127 12.1253 20.6383 12.0851 20.6591 12.0508C20.6734 12.0273 20.6823 12.011 20.6884 12V11.999C20.6824 11.9882 20.6737 11.9726 20.6601 11.9502C20.6395 11.9162 20.6144 11.8763 20.5791 11.8203C20.0464 10.9769 18.9922 9.50011 17.4863 8.24315C15.9823 6.98794 14.087 5.99999 11.8437 5.99999C11.4621 6.00001 11.0921 6.029 10.7334 6.08202C10.187 6.16279 9.67839 5.78461 9.59762 5.23827C9.517 4.69204 9.89417 4.1843 10.4404 4.1035C10.8941 4.03642 11.3621 4.00001 11.8437 3.99999ZM3.00094 12.0244V12.0224L2.99996 12.0205C3.00007 12.0222 3.00085 12.0234 3.00094 12.0244ZM9.84371 12C9.84371 13.1044 10.7393 13.9998 11.8437 14C12.0223 14 12.1948 13.9734 12.3593 13.9297L9.91305 11.4834C9.86913 11.6482 9.84371 11.8211 9.84371 12Z" fill="black"/>
</g>
<defs>
<filter id="filter0_i_1021_139" x="1.00012" y="2.00006" width="21.6882" height="23.9999" filterUnits="userSpaceOnUse" color-interpolation-filters="sRGB">
<feFlood flood-opacity="0" result="BackgroundImageFix"/>
<feBlend mode="normal" in="SourceGraphic" in2="BackgroundImageFix" result="shape"/>
<feColorMatrix in="SourceAlpha" type="matrix" values="0 0 0 0 0 0 0 0 0 0 0 0 0 0 0 0 0 0 127 0" result="hardAlpha"/>
<feOffset dy="4"/>
<feGaussianBlur stdDeviation="2"/>
<feComposite in2="hardAlpha" operator="arithmetic" k2="-1" k3="1"/>
<feColorMatrix type="matrix" values="0 0 0 0 0 0 0 0 0 0 0 0 0 0 0 0 0 0 0.17 0"/>
<feBlend mode="normal" in2="shape" result="effect1_innerShadow_1021_139"/>
</filter>
</defs>
</svg>
