<svg width="24" height="24" viewBox="0 0 24 24" fill="none" xmlns="http://www.w3.org/2000/svg">
<path d="M11.8498 4C14.2062 4 16.3979 4.96781 18.1711 6.25684C19.9517 7.55132 21.4512 9.2677 22.4406 11.0137C22.7872 11.6253 22.7872 12.3747 22.4406 12.9863C21.4512 14.7323 19.9517 16.4487 18.1711 17.7432C16.3979 19.0322 14.2062 20 11.8498 20C9.50384 19.9999 7.26668 19.0402 5.46603 17.752C3.66007 16.4599 2.12312 14.7185 1.21115 12.8945C0.929618 12.3315 0.929618 11.6685 1.21115 11.1055C2.12312 9.28152 3.66007 7.54012 5.46603 6.24805C7.26668 4.95978 9.50384 4.00011 11.8498 4ZM11.8498 6C8.22949 6.00022 4.50015 9.00011 3.00021 12C4.50015 14.9999 8.22949 17.9998 11.8498 18C15.3571 18 18.7793 15.1846 20.5354 12.2812L20.7004 12C19.0004 9 15.4703 6 11.8498 6Z" fill="black"/>
<path d="M13.8002 12C13.8002 10.8954 12.9048 10 11.8002 10C10.6956 10 9.80021 10.8954 9.80021 12C9.80021 13.1046 10.6956 14 11.8002 14V16C9.59107 16 7.80021 14.2091 7.80021 12C7.80021 9.79086 9.59107 8 11.8002 8C14.0093 8 15.8002 9.79086 15.8002 12C15.8002 14.2091 14.0093 16 11.8002 16V14C12.9048 14 13.8002 13.1046 13.8002 12Z" fill="black"/>
</svg>
