<svg width="24" height="24" viewBox="0 0 24 24" fill="none" xmlns="http://www.w3.org/2000/svg">
<path d="M18.0625 11.8125C18.0625 11.9948 17.9901 12.1697 17.8611 12.2986C17.7322 12.4276 17.5573 12.5 17.375 12.5H6.375C6.19266 12.5 6.0178 12.4276 5.88886 12.2986C5.75993 12.1697 5.6875 11.9948 5.6875 11.8125C5.6875 11.6302 5.75993 11.4553 5.88886 11.3264C6.0178 11.1974 6.19266 11.125 6.375 11.125H17.375C17.5573 11.125 17.7322 11.1974 17.8611 11.3264C17.9901 11.4553 18.0625 11.6302 18.0625 11.8125ZM20.8125 7H2.9375C2.75516 7 2.5803 7.07243 2.45136 7.20136C2.32243 7.3303 2.25 7.50516 2.25 7.6875C2.25 7.86984 2.32243 8.0447 2.45136 8.17364C2.5803 8.30257 2.75516 8.375 2.9375 8.375H20.8125C20.9948 8.375 21.1697 8.30257 21.2986 8.17364C21.4276 8.0447 21.5 7.86984 21.5 7.6875C21.5 7.50516 21.4276 7.3303 21.2986 7.20136C21.1697 7.07243 20.9948 7 20.8125 7ZM13.9375 15.25H9.8125C9.63016 15.25 9.4553 15.3224 9.32636 15.4514C9.19743 15.5803 9.125 15.7552 9.125 15.9375C9.125 16.1198 9.19743 16.2947 9.32636 16.4236C9.4553 16.5526 9.63016 16.625 9.8125 16.625H13.9375C14.1198 16.625 14.2947 16.5526 14.4236 16.4236C14.5526 16.2947 14.625 16.1198 14.625 15.9375C14.625 15.7552 14.5526 15.5803 14.4236 15.4514C14.2947 15.3224 14.1198 15.25 13.9375 15.25Z" fill="black"/>
</svg>
