<svg width="24" height="24" viewBox="0 0 24 24" fill="none" xmlns="http://www.w3.org/2000/svg">
<path d="M12.025 0.650024C9.77527 0.650024 7.57603 1.31716 5.70542 2.56706C3.83481 3.81696 2.37685 5.59349 1.5159 7.672C0.654953 9.75051 0.42969 12.0376 0.868597 14.2442C1.3075 16.4507 2.39087 18.4775 3.98169 20.0684C5.57251 21.6592 7.59934 22.7425 9.80588 23.1815C12.0124 23.6204 14.2995 23.3951 16.3781 22.5342C18.4566 21.6732 20.2331 20.2152 21.483 18.3446C22.7329 16.474 23.4 14.2748 23.4 12.025C23.3968 9.00916 22.1974 6.11774 20.0649 3.9852C17.9323 1.85267 15.0409 0.653209 12.025 0.650024ZM21.6096 11.15H17.2532C17.0989 8.03721 16.1299 5.08299 14.5057 2.72815C16.4079 3.23886 18.1083 4.3196 19.3782 5.82515C20.6481 7.3307 21.4268 9.1889 21.6096 11.15ZM12.025 21.638C9.97644 19.421 8.73394 16.2786 8.55019 12.9H15.4999C15.3161 16.2764 14.0736 19.421 12.025 21.638ZM8.55019 11.15C8.73394 7.77362 9.97206 4.62909 12.025 2.41206C14.0736 4.62909 15.3161 7.77143 15.4999 11.15H8.55019ZM9.5444 2.72815C7.92019 5.08299 6.95112 8.03721 6.7969 11.15H2.4405C2.62325 9.1889 3.40191 7.3307 4.67185 5.82515C5.94179 4.3196 7.64214 3.23886 9.5444 2.72815ZM2.4405 12.9H6.7969C6.95112 16.0128 7.92019 18.9671 9.5444 21.3219C7.64214 20.8112 5.94179 19.7304 4.67185 18.2249C3.40191 16.7194 2.62325 14.8612 2.4405 12.9ZM14.5057 21.3219C16.1299 18.9638 17.0989 16.0096 17.2532 12.9H21.6096C21.4268 14.8612 20.6481 16.7194 19.3782 18.2249C18.1083 19.7304 16.4079 20.8112 14.5057 21.3219Z" fill="black"/>
</svg>
