<svg width="24" height="24" viewBox="0 0 24 24" fill="none" xmlns="http://www.w3.org/2000/svg">
<path d="M22.525 3.5H1.52502C1.29296 3.5 1.0704 3.59219 0.906306 3.75628C0.742212 3.92038 0.650024 4.14294 0.650024 4.375V19.25C0.650024 19.7141 0.834399 20.1592 1.16259 20.4874C1.49078 20.8156 1.9359 21 2.40002 21H21.65C22.1142 21 22.5593 20.8156 22.8875 20.4874C23.2156 20.1592 23.4 19.7141 23.4 19.25V4.375C23.4 4.14294 23.3078 3.92038 23.1437 3.75628C22.9796 3.59219 22.7571 3.5 22.525 3.5ZM20.2752 5.25L12.025 12.8133L3.77487 5.25H20.2752ZM21.65 19.25H2.40002V6.36453L11.4333 14.6453C11.5947 14.7935 11.8059 14.8757 12.025 14.8757C12.2442 14.8757 12.4553 14.7935 12.6167 14.6453L21.65 6.36453V19.25Z" fill="black"/>
</svg>
